<svg width="374" height="153" viewBox="0 0 374 153" fill="none" xmlns="http://www.w3.org/2000/svg">
<g filter="url(#filter0_d_1_806)">
<mask id="path-1-inside-1_1_806" fill="white">
<path d="M124.042 11.43C131.193 9 131.783 0 124.693 0C122.69 0 120.406 1.37 118.804 4.17L109.159 20.73C108.766 21.4383 108.306 22.1079 107.787 22.73C105.323 19.34 106.044 14.28 109.5 12.06L108.158 10.27C100.686 15.02 102.88 28.75 115.349 28.75C125.965 28.74 130.892 16 124.042 11.43ZM115.238 26C113.448 26.0451 111.676 25.621 110.101 24.77C110.768 23.9801 111.364 23.1336 111.883 22.24L117.892 11.87L118.894 11.97C127.186 13.72 123.871 26 115.238 26ZM119.074 9.79L121.949 4.86C124.552 0.38 127.878 3.01 126.095 6.36C124.723 8.93 122.7 9.72 119.074 9.79Z"/>
<path d="M263.603 19L263.363 19.27C261.644 21.4528 259.406 23.1717 256.853 24.27C257.434 23.35 257.854 22.35 258.325 21.6L262.261 14.86C265.586 9.22 260.208 7.33 256.572 10.58L257.293 9.35H253.728L248.16 19L247.919 19.27C247.246 20.0474 246.423 20.681 245.499 21.1329C244.575 21.5849 243.569 21.8458 242.541 21.9L245.896 16.12C248.059 12.39 246.066 8.87 242.711 8.87C239.967 8.87 237.844 9.96 235.791 13.52L234.038 16.52L232.576 19L232.386 19.22C229.812 22.22 227.318 24.56 225.736 24.56C224.944 24.56 224.504 24.01 225.325 22.56L230.463 13.56C232.005 10.86 230.533 8.91 228.54 8.91C226.998 8.91 225.355 9.76 223.532 11.61L229.221 1.72H225.656L215.771 19L215.57 19.23C214.327 20.7003 212.896 22.0014 211.314 23.1C212.446 19.71 212.205 14.51 214.398 9.96L211.724 8.52C210.252 10.52 207.027 15.19 203.812 18.95L203.572 19.22C200.998 22.22 198.504 24.56 196.922 24.56C196.131 24.56 195.69 24.01 196.511 22.56L200.077 16.33C201.309 14.17 200.728 12.91 199.566 11.51L197.563 9.12C197.434 8.9857 197.332 8.82695 197.265 8.65307C197.198 8.47919 197.166 8.29366 197.172 8.10738C197.178 7.92111 197.22 7.73782 197.298 7.56826C197.375 7.39871 197.486 7.24631 197.623 7.12L197.733 7.03L195.88 5.03C193.877 6.84 193.687 8.86 194.959 10.5L195.259 10.91C193.687 13.13 191.564 16.14 189.25 18.91L189.01 19.18C186.436 22.18 183.151 24.52 180.647 24.52C178.454 24.52 177.152 23.15 178.795 20.28L179.135 19.66C181.429 20.66 185.745 20.17 188.419 15.56L188.93 14.67C190.853 11.39 189 8.92 186.086 8.92C184.71 8.92971 183.363 9.31501 182.191 10.0342C181.019 10.7533 180.066 11.779 179.436 13L175.96 19L175.75 19.24C175.079 20.02 174.257 20.6555 173.332 21.1077C172.407 21.5598 171.4 21.8192 170.372 21.87L173.727 16.09C174.516 14.8632 174.978 13.4553 175.069 12C175.093 11.6067 175.04 11.2124 174.912 10.8397C174.783 10.467 174.583 10.1231 174.322 9.82784C174.06 9.53253 173.743 9.29152 173.389 9.11859C173.034 8.94567 172.649 8.8442 172.255 8.82H171.834C170.994 8.84363 170.181 9.11889 169.501 9.61L174.027 1.78H170.392L160.417 19L160.226 19.21C157.653 22.21 155.159 24.55 153.576 24.55C152.785 24.55 152.345 24 153.166 22.55L156.731 16.32C157.963 14.16 157.382 12.9 156.22 11.5L154.217 9.11C154.087 8.97572 153.986 8.81664 153.919 8.64227C153.852 8.4679 153.82 8.28181 153.827 8.09513C153.833 7.90844 153.878 7.72499 153.957 7.55573C154.036 7.38647 154.148 7.23488 154.287 7.11L154.428 7L152.575 5C150.572 6.81 150.382 8.83 151.653 10.47L151.964 10.88C150.392 13.1 148.258 16.11 145.955 18.88L145.714 19.15C143.141 22.15 140.647 24.49 139.064 24.49C138.273 24.49 137.833 23.94 138.654 22.49L144.413 12.43H142.409C142.343 11.4849 141.915 10.6016 141.214 9.96304C140.513 9.32451 139.592 8.97969 138.644 9C136.721 9 134.057 10.51 132.545 13.11L127.537 21.73C126.025 24.37 127.096 26.79 129.971 26.79C131.413 26.79 133.196 25.87 134.908 24.46C135.078 25.83 136.18 26.79 137.993 26.79C140.937 26.79 144.332 23.64 147.277 20.22C148.989 18.22 150.281 16.46 153.166 12.59L153.647 13.17C153.885 13.4406 154.033 13.7784 154.07 14.1366C154.108 14.4948 154.033 14.8559 153.857 15.17L150.091 21.7C148.589 24.34 149.65 26.76 152.525 26.76C154.588 26.76 156.871 25.21 159.075 23.11C159.075 25.54 160.887 26.91 163.191 26.91C164.377 26.8475 165.533 26.5182 166.574 25.9468C167.614 25.3753 168.512 24.5765 169.2 23.61C169.463 23.63 169.728 23.63 169.991 23.61C171.657 23.5309 173.279 23.0506 174.718 22.21C174.528 24.78 176.401 26.73 179.546 26.73C183.552 26.73 187.558 23.58 190.562 20.16C192.275 18.16 193.567 16.4 196.451 12.53L196.932 13.11C197.17 13.3806 197.318 13.7184 197.356 14.0766C197.394 14.4348 197.319 14.7959 197.142 15.11L193.377 21.64C191.864 24.28 192.936 26.7 195.81 26.7C198.685 26.7 202.15 23.55 205.094 20.13C207.097 17.8 208.9 15.31 210.162 13.63C208.76 17.33 209.511 23.96 206.156 23.96C205.782 23.923 205.425 23.7814 205.128 23.5515C204.83 23.3216 204.603 23.0126 204.473 22.66L202.3 23.82C202.529 24.6697 203.04 25.4165 203.75 25.938C204.459 26.4595 205.326 26.7247 206.206 26.69C206.547 26.69 206.877 26.69 207.208 26.62H207.308C209.297 26.2823 211.175 25.4729 212.786 24.26L211.564 26.38H215.16L220.568 16.97C226.056 10.09 228.48 10.97 226.937 13.62L222.31 21.62C220.798 24.25 221.87 26.68 224.744 26.68C226.817 26.68 229.101 25.12 231.304 23.01C231.304 27.55 237.604 28.43 241.469 23.56H242.261C243.583 23.5101 244.882 23.1902 246.076 22.62L239.587 33.86H243.182L253.838 15.35C257.844 9.94 260.318 11.93 259.387 13.54L254.008 22.85C253.911 23.1126 253.736 23.3392 253.506 23.4992C253.276 23.6592 253.002 23.7449 252.721 23.7449C252.441 23.7449 252.167 23.6592 251.937 23.4992C251.707 23.3392 251.532 23.1126 251.435 22.85L249.431 23.85C249.66 24.6997 250.171 25.4465 250.881 25.968C251.591 26.4895 252.457 26.7547 253.337 26.72H253.548C258.726 26.62 262.111 23.54 265.025 20.15C264.882 19.8693 264.682 19.6218 264.437 19.4236C264.192 19.2255 263.908 19.0811 263.603 19ZM182.48 14C184.483 10.48 188.169 11.06 186.046 14.75L185.535 15.64C183.822 18.55 181.529 18.48 180.187 18L182.48 14ZM136.801 19.61C134.638 23 132.515 24.61 131.042 24.61C130.251 24.61 129.81 24.06 130.632 22.61L135.639 13.95C137.562 10.63 141.358 11.49 139.645 14.7L136.801 19.61ZM163.632 24.47C163.287 24.4894 162.949 24.3738 162.689 24.1477C162.429 23.9217 162.268 23.6031 162.24 23.26C162.235 23.2068 162.235 23.1532 162.24 23.1C162.293 22.4422 162.506 21.8073 162.86 21.25L164.062 19C164.155 19.7403 164.405 20.4524 164.796 21.0887C165.186 21.7249 165.707 22.2709 166.326 22.69C166.058 23.1836 165.67 23.6018 165.197 23.9059C164.724 24.21 164.182 24.3903 163.622 24.43L163.632 24.47ZM167.347 21C166.854 20.6248 166.459 20.136 166.195 19.5753C165.932 19.0147 165.808 18.3987 165.835 17.78C165.835 15.25 168.299 11.11 170.322 11.11C170.501 11.11 170.679 11.1455 170.845 11.2145C171.011 11.2834 171.162 11.3845 171.288 11.5119C171.415 11.6392 171.515 11.7903 171.583 11.9565C171.651 12.1226 171.685 12.3006 171.684 12.48C171.689 12.5366 171.689 12.5934 171.684 12.65C171.649 13.4045 171.414 14.1363 171.003 14.77L167.347 21ZM240.538 19.22H240.358C239.801 19.2253 239.268 19.4499 238.876 19.845C238.484 20.2402 238.265 20.7738 238.265 21.33C238.271 21.7528 238.389 22.1666 238.605 22.53V22.6C236.923 25.47 232.846 24.93 234.97 21.23L239.356 13.62C241.86 9.38 245.285 11.05 243.122 14.75L240.538 19.22ZM4 73.26L9.71866 67.54L15.4473 73.26L9.71866 79L4 73.26ZM356.534 73.26L362.262 67.55L367.981 73.27L362.282 79L356.534 73.26Z"/>
</mask>
<path d="M124.042 11.43C131.193 9 131.783 0 124.693 0C122.69 0 120.406 1.37 118.804 4.17L109.159 20.73C108.766 21.4383 108.306 22.1079 107.787 22.73C105.323 19.34 106.044 14.28 109.5 12.06L108.158 10.27C100.686 15.02 102.88 28.75 115.349 28.75C125.965 28.74 130.892 16 124.042 11.43ZM115.238 26C113.448 26.0451 111.676 25.621 110.101 24.77C110.768 23.9801 111.364 23.1336 111.883 22.24L117.892 11.87L118.894 11.97C127.186 13.72 123.871 26 115.238 26ZM119.074 9.79L121.949 4.86C124.552 0.38 127.878 3.01 126.095 6.36C124.723 8.93 122.7 9.72 119.074 9.79Z" fill="white"/>
<path d="M263.603 19L263.363 19.27C261.644 21.4528 259.406 23.1717 256.853 24.27C257.434 23.35 257.854 22.35 258.325 21.6L262.261 14.86C265.586 9.22 260.208 7.33 256.572 10.58L257.293 9.35H253.728L248.16 19L247.919 19.27C247.246 20.0474 246.423 20.681 245.499 21.1329C244.575 21.5849 243.569 21.8458 242.541 21.9L245.896 16.12C248.059 12.39 246.066 8.87 242.711 8.87C239.967 8.87 237.844 9.96 235.791 13.52L234.038 16.52L232.576 19L232.386 19.22C229.812 22.22 227.318 24.56 225.736 24.56C224.944 24.56 224.504 24.01 225.325 22.56L230.463 13.56C232.005 10.86 230.533 8.91 228.54 8.91C226.998 8.91 225.355 9.76 223.532 11.61L229.221 1.72H225.656L215.771 19L215.57 19.23C214.327 20.7003 212.896 22.0014 211.314 23.1C212.446 19.71 212.205 14.51 214.398 9.96L211.724 8.52C210.252 10.52 207.027 15.19 203.812 18.95L203.572 19.22C200.998 22.22 198.504 24.56 196.922 24.56C196.131 24.56 195.69 24.01 196.511 22.56L200.077 16.33C201.309 14.17 200.728 12.91 199.566 11.51L197.563 9.12C197.434 8.9857 197.332 8.82695 197.265 8.65307C197.198 8.47919 197.166 8.29366 197.172 8.10738C197.178 7.92111 197.22 7.73782 197.298 7.56826C197.375 7.39871 197.486 7.24631 197.623 7.12L197.733 7.03L195.88 5.03C193.877 6.84 193.687 8.86 194.959 10.5L195.259 10.91C193.687 13.13 191.564 16.14 189.25 18.91L189.01 19.18C186.436 22.18 183.151 24.52 180.647 24.52C178.454 24.52 177.152 23.15 178.795 20.28L179.135 19.66C181.429 20.66 185.745 20.17 188.419 15.56L188.93 14.67C190.853 11.39 189 8.92 186.086 8.92C184.71 8.92971 183.363 9.31501 182.191 10.0342C181.019 10.7533 180.066 11.779 179.436 13L175.96 19L175.75 19.24C175.079 20.02 174.257 20.6555 173.332 21.1077C172.407 21.5598 171.4 21.8192 170.372 21.87L173.727 16.09C174.516 14.8632 174.978 13.4553 175.069 12C175.093 11.6067 175.04 11.2124 174.912 10.8397C174.783 10.467 174.583 10.1231 174.322 9.82784C174.06 9.53253 173.743 9.29152 173.389 9.11859C173.034 8.94567 172.649 8.8442 172.255 8.82H171.834C170.994 8.84363 170.181 9.11889 169.501 9.61L174.027 1.78H170.392L160.417 19L160.226 19.21C157.653 22.21 155.159 24.55 153.576 24.55C152.785 24.55 152.345 24 153.166 22.55L156.731 16.32C157.963 14.16 157.382 12.9 156.22 11.5L154.217 9.11C154.087 8.97572 153.986 8.81664 153.919 8.64227C153.852 8.4679 153.82 8.28181 153.827 8.09513C153.833 7.90844 153.878 7.72499 153.957 7.55573C154.036 7.38647 154.148 7.23488 154.287 7.11L154.428 7L152.575 5C150.572 6.81 150.382 8.83 151.653 10.47L151.964 10.88C150.392 13.1 148.258 16.11 145.955 18.88L145.714 19.15C143.141 22.15 140.647 24.49 139.064 24.49C138.273 24.49 137.833 23.94 138.654 22.49L144.413 12.43H142.409C142.343 11.4849 141.915 10.6016 141.214 9.96304C140.513 9.32451 139.592 8.97969 138.644 9C136.721 9 134.057 10.51 132.545 13.11L127.537 21.73C126.025 24.37 127.096 26.79 129.971 26.79C131.413 26.79 133.196 25.87 134.908 24.46C135.078 25.83 136.18 26.79 137.993 26.79C140.937 26.79 144.332 23.64 147.277 20.22C148.989 18.22 150.281 16.46 153.166 12.59L153.647 13.17C153.885 13.4406 154.033 13.7784 154.07 14.1366C154.108 14.4948 154.033 14.8559 153.857 15.17L150.091 21.7C148.589 24.34 149.65 26.76 152.525 26.76C154.588 26.76 156.871 25.21 159.075 23.11C159.075 25.54 160.887 26.91 163.191 26.91C164.377 26.8475 165.533 26.5182 166.574 25.9468C167.614 25.3753 168.512 24.5765 169.2 23.61C169.463 23.63 169.728 23.63 169.991 23.61C171.657 23.5309 173.279 23.0506 174.718 22.21C174.528 24.78 176.401 26.73 179.546 26.73C183.552 26.73 187.558 23.58 190.562 20.16C192.275 18.16 193.567 16.4 196.451 12.53L196.932 13.11C197.17 13.3806 197.318 13.7184 197.356 14.0766C197.394 14.4348 197.319 14.7959 197.142 15.11L193.377 21.64C191.864 24.28 192.936 26.7 195.81 26.7C198.685 26.7 202.15 23.55 205.094 20.13C207.097 17.8 208.9 15.31 210.162 13.63C208.76 17.33 209.511 23.96 206.156 23.96C205.782 23.923 205.425 23.7814 205.128 23.5515C204.83 23.3216 204.603 23.0126 204.473 22.66L202.3 23.82C202.529 24.6697 203.04 25.4165 203.75 25.938C204.459 26.4595 205.326 26.7247 206.206 26.69C206.547 26.69 206.877 26.69 207.208 26.62H207.308C209.297 26.2823 211.175 25.4729 212.786 24.26L211.564 26.38H215.16L220.568 16.97C226.056 10.09 228.48 10.97 226.937 13.62L222.31 21.62C220.798 24.25 221.87 26.68 224.744 26.68C226.817 26.68 229.101 25.12 231.304 23.01C231.304 27.55 237.604 28.43 241.469 23.56H242.261C243.583 23.5101 244.882 23.1902 246.076 22.62L239.587 33.86H243.182L253.838 15.35C257.844 9.94 260.318 11.93 259.387 13.54L254.008 22.85C253.911 23.1126 253.736 23.3392 253.506 23.4992C253.276 23.6592 253.002 23.7449 252.721 23.7449C252.441 23.7449 252.167 23.6592 251.937 23.4992C251.707 23.3392 251.532 23.1126 251.435 22.85L249.431 23.85C249.66 24.6997 250.171 25.4465 250.881 25.968C251.591 26.4895 252.457 26.7547 253.337 26.72H253.548C258.726 26.62 262.111 23.54 265.025 20.15C264.882 19.8693 264.682 19.6218 264.437 19.4236C264.192 19.2255 263.908 19.0811 263.603 19ZM182.48 14C184.483 10.48 188.169 11.06 186.046 14.75L185.535 15.64C183.822 18.55 181.529 18.48 180.187 18L182.48 14ZM136.801 19.61C134.638 23 132.515 24.61 131.042 24.61C130.251 24.61 129.81 24.06 130.632 22.61L135.639 13.95C137.562 10.63 141.358 11.49 139.645 14.7L136.801 19.61ZM163.632 24.47C163.287 24.4894 162.949 24.3738 162.689 24.1477C162.429 23.9217 162.268 23.6031 162.24 23.26C162.235 23.2068 162.235 23.1532 162.24 23.1C162.293 22.4422 162.506 21.8073 162.86 21.25L164.062 19C164.155 19.7403 164.405 20.4524 164.796 21.0887C165.186 21.7249 165.707 22.2709 166.326 22.69C166.058 23.1836 165.67 23.6018 165.197 23.9059C164.724 24.21 164.182 24.3903 163.622 24.43L163.632 24.47ZM167.347 21C166.854 20.6248 166.459 20.136 166.195 19.5753C165.932 19.0147 165.808 18.3987 165.835 17.78C165.835 15.25 168.299 11.11 170.322 11.11C170.501 11.11 170.679 11.1455 170.845 11.2145C171.011 11.2834 171.162 11.3845 171.288 11.5119C171.415 11.6392 171.515 11.7903 171.583 11.9565C171.651 12.1226 171.685 12.3006 171.684 12.48C171.689 12.5366 171.689 12.5934 171.684 12.65C171.649 13.4045 171.414 14.1363 171.003 14.77L167.347 21ZM240.538 19.22H240.358C239.801 19.2253 239.268 19.4499 238.876 19.845C238.484 20.2402 238.265 20.7738 238.265 21.33C238.271 21.7528 238.389 22.1666 238.605 22.53V22.6C236.923 25.47 232.846 24.93 234.97 21.23L239.356 13.62C241.86 9.38 245.285 11.05 243.122 14.75L240.538 19.22ZM4 73.26L9.71866 67.54L15.4473 73.26L9.71866 79L4 73.26ZM356.534 73.26L362.262 67.55L367.981 73.27L362.282 79L356.534 73.26Z" fill="white"/>
<path d="M124.042 11.43C131.193 9 131.783 0 124.693 0C122.69 0 120.406 1.37 118.804 4.17L109.159 20.73C108.766 21.4383 108.306 22.1079 107.787 22.73C105.323 19.34 106.044 14.28 109.5 12.06L108.158 10.27C100.686 15.02 102.88 28.75 115.349 28.75C125.965 28.74 130.892 16 124.042 11.43ZM115.238 26C113.448 26.0451 111.676 25.621 110.101 24.77C110.768 23.9801 111.364 23.1336 111.883 22.24L117.892 11.87L118.894 11.97C127.186 13.72 123.871 26 115.238 26ZM119.074 9.79L121.949 4.86C124.552 0.38 127.878 3.01 126.095 6.36C124.723 8.93 122.7 9.72 119.074 9.79Z" stroke="black" stroke-width="2" mask="url(#path-1-inside-1_1_806)"/>
<path d="M263.603 19L263.363 19.27C261.644 21.4528 259.406 23.1717 256.853 24.27C257.434 23.35 257.854 22.35 258.325 21.6L262.261 14.86C265.586 9.22 260.208 7.33 256.572 10.58L257.293 9.35H253.728L248.16 19L247.919 19.27C247.246 20.0474 246.423 20.681 245.499 21.1329C244.575 21.5849 243.569 21.8458 242.541 21.9L245.896 16.12C248.059 12.39 246.066 8.87 242.711 8.87C239.967 8.87 237.844 9.96 235.791 13.52L234.038 16.52L232.576 19L232.386 19.22C229.812 22.22 227.318 24.56 225.736 24.56C224.944 24.56 224.504 24.01 225.325 22.56L230.463 13.56C232.005 10.86 230.533 8.91 228.54 8.91C226.998 8.91 225.355 9.76 223.532 11.61L229.221 1.72H225.656L215.771 19L215.57 19.23C214.327 20.7003 212.896 22.0014 211.314 23.1C212.446 19.71 212.205 14.51 214.398 9.96L211.724 8.52C210.252 10.52 207.027 15.19 203.812 18.95L203.572 19.22C200.998 22.22 198.504 24.56 196.922 24.56C196.131 24.56 195.69 24.01 196.511 22.56L200.077 16.33C201.309 14.17 200.728 12.91 199.566 11.51L197.563 9.12C197.434 8.9857 197.332 8.82695 197.265 8.65307C197.198 8.47919 197.166 8.29366 197.172 8.10738C197.178 7.92111 197.22 7.73782 197.298 7.56826C197.375 7.39871 197.486 7.24631 197.623 7.12L197.733 7.03L195.88 5.03C193.877 6.84 193.687 8.86 194.959 10.5L195.259 10.91C193.687 13.13 191.564 16.14 189.25 18.91L189.01 19.18C186.436 22.18 183.151 24.52 180.647 24.52C178.454 24.52 177.152 23.15 178.795 20.28L179.135 19.66C181.429 20.66 185.745 20.17 188.419 15.56L188.93 14.67C190.853 11.39 189 8.92 186.086 8.92C184.71 8.92971 183.363 9.31501 182.191 10.0342C181.019 10.7533 180.066 11.779 179.436 13L175.96 19L175.75 19.24C175.079 20.02 174.257 20.6555 173.332 21.1077C172.407 21.5598 171.4 21.8192 170.372 21.87L173.727 16.09C174.516 14.8632 174.978 13.4553 175.069 12C175.093 11.6067 175.04 11.2124 174.912 10.8397C174.783 10.467 174.583 10.1231 174.322 9.82784C174.06 9.53253 173.743 9.29152 173.389 9.11859C173.034 8.94567 172.649 8.8442 172.255 8.82H171.834C170.994 8.84363 170.181 9.11889 169.501 9.61L174.027 1.78H170.392L160.417 19L160.226 19.21C157.653 22.21 155.159 24.55 153.576 24.55C152.785 24.55 152.345 24 153.166 22.55L156.731 16.32C157.963 14.16 157.382 12.9 156.22 11.5L154.217 9.11C154.087 8.97572 153.986 8.81664 153.919 8.64227C153.852 8.4679 153.82 8.28181 153.827 8.09513C153.833 7.90844 153.878 7.72499 153.957 7.55573C154.036 7.38647 154.148 7.23488 154.287 7.11L154.428 7L152.575 5C150.572 6.81 150.382 8.83 151.653 10.47L151.964 10.88C150.392 13.1 148.258 16.11 145.955 18.88L145.714 19.15C143.141 22.15 140.647 24.49 139.064 24.49C138.273 24.49 137.833 23.94 138.654 22.49L144.413 12.43H142.409C142.343 11.4849 141.915 10.6016 141.214 9.96304C140.513 9.32451 139.592 8.97969 138.644 9C136.721 9 134.057 10.51 132.545 13.11L127.537 21.73C126.025 24.37 127.096 26.79 129.971 26.79C131.413 26.79 133.196 25.87 134.908 24.46C135.078 25.83 136.18 26.79 137.993 26.79C140.937 26.79 144.332 23.64 147.277 20.22C148.989 18.22 150.281 16.46 153.166 12.59L153.647 13.17C153.885 13.4406 154.033 13.7784 154.07 14.1366C154.108 14.4948 154.033 14.8559 153.857 15.17L150.091 21.7C148.589 24.34 149.65 26.76 152.525 26.76C154.588 26.76 156.871 25.21 159.075 23.11C159.075 25.54 160.887 26.91 163.191 26.91C164.377 26.8475 165.533 26.5182 166.574 25.9468C167.614 25.3753 168.512 24.5765 169.2 23.61C169.463 23.63 169.728 23.63 169.991 23.61C171.657 23.5309 173.279 23.0506 174.718 22.21C174.528 24.78 176.401 26.73 179.546 26.73C183.552 26.73 187.558 23.58 190.562 20.16C192.275 18.16 193.567 16.4 196.451 12.53L196.932 13.11C197.17 13.3806 197.318 13.7184 197.356 14.0766C197.394 14.4348 197.319 14.7959 197.142 15.11L193.377 21.64C191.864 24.28 192.936 26.7 195.81 26.7C198.685 26.7 202.15 23.55 205.094 20.13C207.097 17.8 208.9 15.31 210.162 13.63C208.76 17.33 209.511 23.96 206.156 23.96C205.782 23.923 205.425 23.7814 205.128 23.5515C204.83 23.3216 204.603 23.0126 204.473 22.66L202.3 23.82C202.529 24.6697 203.04 25.4165 203.75 25.938C204.459 26.4595 205.326 26.7247 206.206 26.69C206.547 26.69 206.877 26.69 207.208 26.62H207.308C209.297 26.2823 211.175 25.4729 212.786 24.26L211.564 26.38H215.16L220.568 16.97C226.056 10.09 228.48 10.97 226.937 13.62L222.31 21.62C220.798 24.25 221.87 26.68 224.744 26.68C226.817 26.68 229.101 25.12 231.304 23.01C231.304 27.55 237.604 28.43 241.469 23.56H242.261C243.583 23.5101 244.882 23.1902 246.076 22.62L239.587 33.86H243.182L253.838 15.35C257.844 9.94 260.318 11.93 259.387 13.54L254.008 22.85C253.911 23.1126 253.736 23.3392 253.506 23.4992C253.276 23.6592 253.002 23.7449 252.721 23.7449C252.441 23.7449 252.167 23.6592 251.937 23.4992C251.707 23.3392 251.532 23.1126 251.435 22.85L249.431 23.85C249.66 24.6997 250.171 25.4465 250.881 25.968C251.591 26.4895 252.457 26.7547 253.337 26.72H253.548C258.726 26.62 262.111 23.54 265.025 20.15C264.882 19.8693 264.682 19.6218 264.437 19.4236C264.192 19.2255 263.908 19.0811 263.603 19ZM182.48 14C184.483 10.48 188.169 11.06 186.046 14.75L185.535 15.64C183.822 18.55 181.529 18.48 180.187 18L182.48 14ZM136.801 19.61C134.638 23 132.515 24.61 131.042 24.61C130.251 24.61 129.81 24.06 130.632 22.61L135.639 13.95C137.562 10.63 141.358 11.49 139.645 14.7L136.801 19.61ZM163.632 24.47C163.287 24.4894 162.949 24.3738 162.689 24.1477C162.429 23.9217 162.268 23.6031 162.24 23.26C162.235 23.2068 162.235 23.1532 162.24 23.1C162.293 22.4422 162.506 21.8073 162.86 21.25L164.062 19C164.155 19.7403 164.405 20.4524 164.796 21.0887C165.186 21.7249 165.707 22.2709 166.326 22.69C166.058 23.1836 165.67 23.6018 165.197 23.9059C164.724 24.21 164.182 24.3903 163.622 24.43L163.632 24.47ZM167.347 21C166.854 20.6248 166.459 20.136 166.195 19.5753C165.932 19.0147 165.808 18.3987 165.835 17.78C165.835 15.25 168.299 11.11 170.322 11.11C170.501 11.11 170.679 11.1455 170.845 11.2145C171.011 11.2834 171.162 11.3845 171.288 11.5119C171.415 11.6392 171.515 11.7903 171.583 11.9565C171.651 12.1226 171.685 12.3006 171.684 12.48C171.689 12.5366 171.689 12.5934 171.684 12.65C171.649 13.4045 171.414 14.1363 171.003 14.77L167.347 21ZM240.538 19.22H240.358C239.801 19.2253 239.268 19.4499 238.876 19.845C238.484 20.2402 238.265 20.7738 238.265 21.33C238.271 21.7528 238.389 22.1666 238.605 22.53V22.6C236.923 25.47 232.846 24.93 234.97 21.23L239.356 13.62C241.86 9.38 245.285 11.05 243.122 14.75L240.538 19.22ZM4 73.26L9.71866 67.54L15.4473 73.26L9.71866 79L4 73.26ZM356.534 73.26L362.262 67.55L367.981 73.27L362.282 79L356.534 73.26Z" stroke="black" stroke-width="2" mask="url(#path-1-inside-1_1_806)"/>
</g>
<path d="M50.871 73.48H52.9542V65.16H56.2291V63.07H50.871V73.48ZM65.7836 75V62.32C65.7784 61.4705 65.5356 60.6393 65.0826 59.9202C64.6295 59.2011 63.9844 58.6226 63.2197 58.25C63.537 58.869 63.7018 59.5546 63.7004 60.25V72.93C63.7108 73.5981 63.5714 74.26 63.2924 74.8674C63.0134 75.4747 62.6019 76.012 62.088 76.44C62.598 76.9129 63.0079 77.4831 63.2935 78.1169C63.579 78.7507 63.7344 79.4352 63.7505 80.13V94.23C63.7347 95.4518 63.2347 96.6176 62.36 97.4722C61.4853 98.3269 60.3072 98.8007 59.0835 98.79H45.553V100.87H61.2167C62.4231 100.854 63.5757 100.369 64.4288 99.5172C65.2819 98.6654 65.768 97.5145 65.7836 96.31V82.21C65.7642 81.5129 65.6043 80.8269 65.3135 80.193C65.0227 79.559 64.607 78.99 64.091 78.52C64.6237 78.1014 65.0533 77.5664 65.3467 76.9562C65.6401 76.3461 65.7895 75.6768 65.7836 75V75Z" fill="#636466"/>
<path d="M50.8708 91.34H52.954V83H56.229V80.87H50.8708V91.34ZM83.9209 91.34H86.004V65.16H89.279V63.07H83.9309L83.9209 91.34Z" fill="#636466"/>
<path d="M96.2796 58.25C96.597 58.869 96.7618 59.5546 96.7604 60.25V94.25C96.7448 95.4546 96.2586 96.6054 95.4055 97.4572C94.5524 98.309 93.3998 98.7945 92.1934 98.81H81.1167C80.4208 98.8065 79.7353 98.6423 79.1136 98.33C79.4868 99.0935 80.0661 99.7377 80.7864 100.19C81.5066 100.642 82.339 100.885 83.1898 100.89H94.2866C95.493 100.874 96.6456 100.389 97.4987 99.5372C98.3518 98.6854 98.838 97.5346 98.8535 96.33V62.33C98.8504 61.4775 98.6075 60.6429 98.1524 59.9216C97.6973 59.2002 97.0484 58.621 96.2796 58.25V58.25ZM116.991 73.48H119.074V65.16H122.359V63.07H116.991V73.48ZM129.26 82.48C130.036 82.1221 130.693 81.5493 131.152 80.8296C131.612 80.1099 131.856 79.2736 131.853 78.42V62.32C131.854 61.4641 131.613 60.6253 131.158 59.9C130.702 59.1748 130.051 58.5925 129.28 58.22C129.592 58.8407 129.757 59.5252 129.76 60.22V76.37C129.767 77.2234 129.528 78.0609 129.072 78.7825C128.616 79.5041 127.961 80.0795 127.186 80.44L130.271 98.79H124.582L124.933 100.87H132.334L129.26 82.48ZM119.825 80.83H116.991V98.79H111.673V100.88H119.074V83H120.176L119.825 80.83ZM149.06 91.3H151.153V65.16H154.428V63.07H149.06V91.3Z" fill="#636466"/>
<path d="M161.418 58.25C161.737 58.8686 161.902 59.5545 161.899 60.25V94.25C161.883 95.4546 161.397 96.6054 160.544 97.4572C159.691 98.309 158.538 98.7944 157.332 98.81H146.215C145.519 98.8065 144.834 98.6422 144.212 98.33C144.585 99.0935 145.165 99.7377 145.885 100.19C146.605 100.642 147.438 100.885 148.288 100.89H159.395C160.602 100.874 161.754 100.389 162.607 99.5372C163.46 98.6854 163.946 97.5346 163.962 96.33V62.33C163.962 61.4806 163.723 60.6483 163.274 59.9273C162.824 59.2062 162.181 58.6252 161.418 58.25V58.25ZM182.12 91.34H184.213V65.16H187.488V63.07H182.12V91.34Z" fill="#636466"/>
<path d="M194.478 58.25C194.796 58.869 194.96 59.5546 194.959 60.25V94.25C194.943 95.4545 194.457 96.6054 193.604 97.4572C192.751 98.309 191.598 98.7944 190.392 98.81H176.812V100.89H192.475C193.682 100.874 194.834 100.389 195.687 99.5372C196.54 98.6854 197.027 97.5345 197.042 96.33V62.33C197.039 61.4787 196.797 60.6454 196.344 59.9244C195.891 59.2033 195.244 58.6233 194.478 58.25V58.25ZM215.56 57.77V98.77H210.242V100.86H217.643V57.77H215.56ZM248.49 57.77V98.77H242.581L243.172 100.86H250.583V57.77H248.49ZM235.661 80V98.79H230.343V100.88H237.744V87.19L235.661 80ZM267.98 83H274.099V80.87H265.896C265.201 80.8665 264.515 80.7022 263.893 80.39C264.257 81.1665 264.834 81.824 265.558 82.286C266.281 82.748 267.121 82.9956 267.98 83V83ZM270.814 85.73L268.721 86.21V91.34H270.814V85.73ZM281.079 58.25C281.397 58.869 281.561 59.5546 281.56 60.25V69L276.182 70.24V72.8L283.643 71.07V62.32C283.638 61.4704 283.395 60.6393 282.942 59.9201C282.489 59.201 281.844 58.6226 281.079 58.25V58.25Z" fill="#636466"/>
<path d="M281.079 76.05C281.397 76.669 281.561 77.3546 281.56 78.05V94.25C281.545 95.4545 281.058 96.6054 280.205 97.4572C279.352 98.309 278.2 98.7944 276.993 98.81H265.886C265.19 98.8065 264.505 98.6422 263.883 98.33C264.256 99.0935 264.836 99.7377 265.556 100.19C266.276 100.642 267.109 100.885 267.959 100.89H279.056C280.263 100.874 281.415 100.389 282.268 99.5372C283.121 98.6854 283.608 97.5345 283.623 96.33V80.12C283.621 79.2723 283.382 78.4421 282.932 77.723C282.483 77.0039 281.841 76.4244 281.079 76.05V76.05ZM268.721 63.05V73.48H270.814V65.16H274.089V63.07L268.721 63.05ZM302.452 80.87H301.771V98.79H296.443V100.88H303.844V85.35L302.452 80.87ZM317.615 57.77H314.87L308.631 77.18L315.542 98.79H309.532L310.113 100.63L310.173 100.88H317.635L310.724 79.26L317.635 57.77H317.615ZM335.021 57.77V98.77H329.713V100.86H337.104V57.77H335.021Z" fill="#636466"/>
<path d="M172.155 123.85H173.567C179.005 124.13 183.271 125.58 185.976 128.57C188.72 125.57 192.986 124.11 198.454 123.85H199.806C211.935 124.67 217.463 133.35 227.148 137.04C228.653 137.723 230.292 138.065 231.945 138.04C234.429 137.77 236.011 135.26 235.691 132.46C235.35 129.46 232.406 126.85 229.121 128.29C228.69 128.492 228.294 128.762 227.949 129.09C227.699 129.32 227.418 129.92 226.777 129.7C226.176 129.2 226.777 128.47 227.088 128.05C227.681 126.997 228.578 126.147 229.663 125.612C230.748 125.077 231.969 124.881 233.167 125.05C238.806 125.45 243.853 130.39 242.992 137.87C241.069 149 230.874 152 218.785 153H214.849C204.3 152.57 194.181 148.707 186.036 142C177.83 148.69 167.676 152.549 157.092 153H153.226C141.048 151.93 130.752 149 128.959 137.54C128.278 129.38 133.146 125.37 138.794 124.96C140.002 124.789 141.234 124.983 142.33 125.518C143.426 126.052 144.337 126.903 144.943 127.96C145.224 128.42 145.745 129.13 145.254 129.68C144.643 129.79 144.343 129.31 144.082 129.07C143.716 128.689 143.278 128.384 142.793 128.173C142.308 127.962 141.787 127.849 141.258 127.84C137.392 127.7 135.169 131.99 136.711 135.45C137.013 136.121 137.482 136.705 138.072 137.146C138.663 137.587 139.356 137.87 140.086 137.97C141.738 137.981 143.374 137.64 144.883 136.97C146.23 136.454 147.527 135.818 148.759 135.07C156.12 130.81 161.879 124.76 172.155 123.85V123.85Z" fill="white"/>
<path d="M366.188 82.91L371.907 77.19L374 79.28L368.271 85L366.188 82.91ZM13.6545 82.91L19.3732 77.2L21.4664 79.28L15.7778 85L13.6545 82.91Z" fill="#636466"/>
<path d="M59.7343 69C59.7382 69.6667 59.5917 70.3258 59.3056 70.9282C59.0195 71.5307 58.6012 72.0611 58.0818 72.48C58.5918 72.9529 59.0017 73.5231 59.2872 74.1569C59.5728 74.7907 59.7282 75.4752 59.7443 76.17V90.27C59.7287 91.4745 59.2426 92.6254 58.3895 93.4772C57.5364 94.329 56.3838 94.8145 55.1774 94.83H39.5037V51.72H55.1674C56.377 51.7253 57.5355 52.2074 58.3908 53.0614C59.2462 53.9154 59.729 55.0722 59.7343 56.28V69ZM52.273 59.11H46.9049V69.52H52.273V59.11ZM52.273 76.91H46.9049V87.38H52.273V76.91ZM88.2274 51.72C89.437 51.7253 90.5956 52.2074 91.4509 53.0614C92.3062 53.9154 92.7891 55.0722 92.7943 56.28V90.28C92.7788 91.4846 92.2926 92.6354 91.4395 93.4872C90.5864 94.339 89.4338 94.8244 88.2274 94.84H77.1106C75.9026 94.8296 74.7471 94.3458 73.8929 93.4929C73.0387 92.64 72.5541 91.4862 72.5437 90.28V56.28C72.5437 55.0706 73.0248 53.9108 73.8813 53.0556C74.7378 52.2004 75.8994 51.72 77.1106 51.72H88.2274ZM85.323 59.11H79.9649V87.38H85.333L85.323 59.11ZM118.884 94.83L115.879 76.91H113.045V94.83H105.644V51.72H121.307C121.903 51.7239 122.492 51.845 123.041 52.0763C123.59 52.3076 124.088 52.6446 124.507 53.068C124.925 53.4914 125.256 53.993 125.48 54.5441C125.705 55.0953 125.818 55.6851 125.814 56.28V56.28V72.42C125.813 73.278 125.564 74.1174 125.096 74.8375C124.629 75.5577 123.964 76.1279 123.18 76.48L126.265 94.83H118.884ZM118.393 59.11H113.025V69.52H118.393V59.11ZM153.366 51.72C154.576 51.7253 155.734 52.2074 156.589 53.0614C157.445 53.9154 157.928 55.0722 157.933 56.28V90.28C157.917 91.4846 157.431 92.6354 156.578 93.4872C155.725 94.339 154.572 94.8244 153.366 94.84H142.269C141.061 94.8296 139.906 94.3458 139.051 93.4929C138.197 92.64 137.713 91.4862 137.702 90.28V56.28C137.702 55.0809 138.175 53.9301 139.019 53.0766C139.862 52.2232 141.008 51.7358 142.209 51.72H153.366ZM150.462 59.11H145.094V87.38H150.462V59.11ZM186.426 51.72C187.636 51.7253 188.794 52.2074 189.65 53.0614C190.505 53.9154 190.988 55.0722 190.993 56.28V90.28C190.977 91.4846 190.491 92.6354 189.638 93.4872C188.785 94.339 187.632 94.8244 186.426 94.84H170.762V51.72H186.426ZM183.532 59.11H178.164V87.38H183.532V59.11ZM204.193 51.72H211.594V94.83H204.193V51.72ZM244.534 51.72V94.83H237.133L231.705 76V94.83H224.333V51.72H231.675L237.103 69.39V51.72H244.534ZM273.027 69.52C274.237 69.5253 275.395 70.0074 276.251 70.8614C277.106 71.7154 277.589 72.8722 277.594 74.08V90.28C277.578 91.4846 277.092 92.6354 276.239 93.4872C275.386 94.339 274.234 94.8244 273.027 94.84H261.93C260.726 94.8243 259.575 94.3383 258.725 93.4859C257.876 92.6336 257.394 91.4827 257.383 90.28V81.41L264.785 79.69V87.39H270.153V76.91H261.95C261.352 76.9113 260.759 76.7949 260.206 76.5675C259.652 76.34 259.149 76.006 258.725 75.5844C258.301 75.1628 257.964 74.662 257.734 74.1104C257.504 73.5589 257.385 72.9675 257.383 72.37V72.37V56.28C257.383 55.0741 257.862 53.9172 258.714 53.0626C259.566 52.2081 260.723 51.7253 261.93 51.72H273.047C274.257 51.7253 275.415 52.2074 276.271 53.0614C277.126 53.9154 277.609 55.0722 277.614 56.28V65L270.153 66.73V59.11H264.785V69.52H273.027ZM304.675 73.22L311.585 94.84H304.124L304.064 94.59L298.516 76.92H297.835V94.83H290.433V51.72H297.835V69.52H298.446L304.124 51.72H311.646L304.675 73.22ZM323.704 51.72H331.105V94.83H323.704V51.72Z" fill="white"/>
<defs>
<filter id="filter0_d_1_806" x="0" y="0" width="371.981" height="87" filterUnits="userSpaceOnUse" color-interpolation-filters="sRGB">
<feFlood flood-opacity="0" result="BackgroundImageFix"/>
<feColorMatrix in="SourceAlpha" type="matrix" values="0 0 0 0 0 0 0 0 0 0 0 0 0 0 0 0 0 0 127 0" result="hardAlpha"/>
<feOffset dy="4"/>
<feGaussianBlur stdDeviation="2"/>
<feComposite in2="hardAlpha" operator="out"/>
<feColorMatrix type="matrix" values="0 0 0 0 0 0 0 0 0 0 0 0 0 0 0 0 0 0 0.25 0"/>
<feBlend mode="normal" in2="BackgroundImageFix" result="effect1_dropShadow_1_806"/>
<feBlend mode="normal" in="SourceGraphic" in2="effect1_dropShadow_1_806" result="shape"/>
</filter>
</defs>
</svg>
